<?xml version="1.0" encoding="UTF-8" standalone="no"?>
<svg width="175px" height="300px" viewBox="0 0 175 300" version="1.1" xmlns="http://www.w3.org/2000/svg" xmlns:xlink="http://www.w3.org/1999/xlink" xmlns:sketch="http://www.bohemiancoding.com/sketch/ns">
    <!-- Generator: Sketch 3.3.3 (12081) - http://www.bohemiancoding.com/sketch -->
    <title>Untitled</title>
    <desc>Created with Sketch.</desc>
    <defs>
        <linearGradient x1="50%" y1="0%" x2="50%" y2="100%" id="linearGradient-1">
            <stop stop-color="#FFF2AC" offset="0%"></stop>
            <stop stop-color="#E50E0E" offset="100%"></stop>
        </linearGradient>
    </defs>
    <g id="Page-1" stroke="none" stroke-width="1" fill="none" fill-rule="evenodd" sketch:type="MSPage">
        <path d="M154.042969,242.589844 C162.191406,229.253906 172.053326,200.435022 173.898438,168.042969 C175.743549,135.650915 168.566406,121.59375 162.882813,104.140625 C161.371391,99.4993656 149.158941,78.3351778 144.367188,72.4140625 C135.632813,61.6210938 139.613138,50.9114012 148.585938,30.0039062 C157.558737,9.09641134 173.898438,0.484375 173.898438,0.484375 C173.898438,0.484375 148.880613,5.14922507 135.632813,12.5078125 C122.385012,19.8663999 123.977511,18.8584345 114.414063,30.0039062 C104.850614,41.149378 107.751166,41.3414717 101.933594,49.0742188 C95.556427,57.5507812 85.15625,54.9179688 68.9765625,61.6210938 C52.796875,68.3242188 40.8164063,84.140625 40.8164063,84.140625 C40.8164063,84.140625 17.1484375,114.003906 17.1484375,114.003906 L0.17578125,138.3125 L40.8164063,138.3125 C40.8164063,138.3125 61.1757813,111.058594 68.9765625,104.140625 C77.9223969,96.2071884 96.5173549,97.29327 107.96875,104.140625 C119.420145,110.98798 125.403895,122.742746 131.265625,138.3125 C137.127355,153.882254 135.632813,164.628906 135.632813,177.621094 C135.632813,190.613281 132.739625,204.545725 126.125,221.902344 C119.510375,239.258962 107.96875,250.210938 107.96875,250.210938 L101.933594,299.214844 C101.933594,299.214844 136.942251,270.577308 154.042969,242.589844 Z" id="Path-1" fill="url(#linearGradient-1)" sketch:type="MSShapeGroup"></path>
    </g>
</svg>